@startuml animal-cat-dog-factorization
!theme plain

skinparam classAttributeIconSize 0
skinparam classFontStyle bold

abstract class Animal {
  # name: String
  # age: int
  --
  + eat(): void
  + sleep(): void
  + {abstract} makeSound(): void
}

class Cat {
  + makeSound(): void
}

class Dog {
  + makeSound(): void
}

Animal <|-- Cat
Animal <|-- Dog



@enduml